<mxfile host="app.diagrams.net" agent="Mozilla/5.0 (Windows NT 10.0; Win64; x64) AppleWebKit/537.36 (KHTML, like Gecko) Chrome/127.0.0.0 Safari/537.36" version="24.7.5">
  <diagram name="Page-1" id="Ggm8vnjdGkJ98hT2o5NO">
    <mxGraphModel dx="875" dy="471" grid="1" gridSize="10" guides="1" tooltips="1" connect="1" arrows="1" fold="1" page="1" pageScale="1" pageWidth="827" pageHeight="1169" math="0" shadow="0">
      <root>
        <mxCell id="0" />
        <mxCell id="1" parent="0" />
        <mxCell id="B0HwnlrY3ajrPPypWIH2-1" style="rounded=0;orthogonalLoop=1;jettySize=auto;html=1;exitX=1;exitY=0.5;exitDx=0;exitDy=0;entryX=0;entryY=0.75;entryDx=0;entryDy=0;endArrow=none;endFill=0;" parent="1" source="B0HwnlrY3ajrPPypWIH2-94" target="B0HwnlrY3ajrPPypWIH2-5" edge="1">
          <mxGeometry relative="1" as="geometry">
            <mxPoint x="693.4699999999998" y="363.75" as="sourcePoint" />
            <mxPoint x="693" y="339.25" as="targetPoint" />
          </mxGeometry>
        </mxCell>
        <mxCell id="B0HwnlrY3ajrPPypWIH2-2" value="N" style="text;html=1;align=center;verticalAlign=middle;whiteSpace=wrap;rounded=0;" parent="1" vertex="1">
          <mxGeometry x="710" y="326.75" width="20" height="20" as="geometry" />
        </mxCell>
        <mxCell id="B0HwnlrY3ajrPPypWIH2-3" value="" style="rounded=0;orthogonalLoop=1;jettySize=auto;html=1;endArrow=none;endFill=0;" parent="1" source="B0HwnlrY3ajrPPypWIH2-5" target="B0HwnlrY3ajrPPypWIH2-8" edge="1">
          <mxGeometry relative="1" as="geometry" />
        </mxCell>
        <mxCell id="B0HwnlrY3ajrPPypWIH2-4" style="edgeStyle=orthogonalEdgeStyle;rounded=0;orthogonalLoop=1;jettySize=auto;html=1;exitX=1;exitY=0.5;exitDx=0;exitDy=0;entryX=0;entryY=0.5;entryDx=0;entryDy=0;endArrow=none;endFill=0;shape=link;" parent="1" source="B0HwnlrY3ajrPPypWIH2-5" target="B0HwnlrY3ajrPPypWIH2-90" edge="1">
          <mxGeometry relative="1" as="geometry">
            <mxPoint x="876.5299999999997" y="335" as="targetPoint" />
          </mxGeometry>
        </mxCell>
        <mxCell id="B0HwnlrY3ajrPPypWIH2-5" value="Rule" style="rounded=0;whiteSpace=wrap;html=1;" parent="1" vertex="1">
          <mxGeometry x="730" y="315" width="120" height="40" as="geometry" />
        </mxCell>
        <mxCell id="B0HwnlrY3ajrPPypWIH2-6" value="N" style="text;html=1;align=center;verticalAlign=middle;whiteSpace=wrap;rounded=0;" parent="1" vertex="1">
          <mxGeometry x="710" y="295.5" width="20" height="20" as="geometry" />
        </mxCell>
        <mxCell id="B0HwnlrY3ajrPPypWIH2-7" value="" style="endArrow=none;html=1;rounded=0;curved=1;" parent="1" edge="1">
          <mxGeometry width="50" height="50" relative="1" as="geometry">
            <mxPoint x="720" y="380" as="sourcePoint" />
            <mxPoint x="710" y="290" as="targetPoint" />
            <Array as="points">
              <mxPoint x="690" y="331.25" />
            </Array>
          </mxGeometry>
        </mxCell>
        <mxCell id="B0HwnlrY3ajrPPypWIH2-8" value="&lt;u&gt;Id&lt;/u&gt;" style="ellipse;whiteSpace=wrap;html=1;" parent="1" vertex="1">
          <mxGeometry x="755" y="256.75" width="70" height="37.5" as="geometry" />
        </mxCell>
        <mxCell id="B0HwnlrY3ajrPPypWIH2-10" value="Inconsistency" style="rounded=0;whiteSpace=wrap;html=1;" parent="1" vertex="1">
          <mxGeometry x="480" y="275" width="120" height="40" as="geometry" />
        </mxCell>
        <mxCell id="B0HwnlrY3ajrPPypWIH2-11" style="rounded=0;orthogonalLoop=1;jettySize=auto;html=1;exitX=0;exitY=0.25;exitDx=0;exitDy=0;entryX=1;entryY=0.5;entryDx=0;entryDy=0;endArrow=none;endFill=0;" parent="1" source="B0HwnlrY3ajrPPypWIH2-5" target="B0HwnlrY3ajrPPypWIH2-93" edge="1">
          <mxGeometry relative="1" as="geometry">
            <mxPoint x="704" y="320.25" as="sourcePoint" />
            <mxPoint x="693.4699999999998" y="298" as="targetPoint" />
          </mxGeometry>
        </mxCell>
        <mxCell id="B0HwnlrY3ajrPPypWIH2-12" style="rounded=0;orthogonalLoop=1;jettySize=auto;html=1;entryX=1;entryY=0.5;entryDx=0;entryDy=0;endArrow=none;endFill=0;exitX=0;exitY=0.5;exitDx=0;exitDy=0;" parent="1" source="B0HwnlrY3ajrPPypWIH2-93" target="B0HwnlrY3ajrPPypWIH2-10" edge="1">
          <mxGeometry relative="1" as="geometry">
            <mxPoint x="630" y="287" as="sourcePoint" />
          </mxGeometry>
        </mxCell>
        <mxCell id="B0HwnlrY3ajrPPypWIH2-95" style="edgeStyle=orthogonalEdgeStyle;rounded=0;orthogonalLoop=1;jettySize=auto;html=1;exitX=1;exitY=0.5;exitDx=0;exitDy=0;entryX=0;entryY=0.5;entryDx=0;entryDy=0;endArrow=none;endFill=0;" parent="1" source="B0HwnlrY3ajrPPypWIH2-13" target="B0HwnlrY3ajrPPypWIH2-94" edge="1">
          <mxGeometry relative="1" as="geometry" />
        </mxCell>
        <mxCell id="B0HwnlrY3ajrPPypWIH2-13" value="Form" style="rounded=0;whiteSpace=wrap;html=1;" parent="1" vertex="1">
          <mxGeometry x="480" y="343.75" width="120" height="40" as="geometry" />
        </mxCell>
        <mxCell id="B0HwnlrY3ajrPPypWIH2-14" value="1" style="text;html=1;align=center;verticalAlign=middle;whiteSpace=wrap;rounded=0;" parent="1" vertex="1">
          <mxGeometry x="600" y="275.5" width="20" height="20" as="geometry" />
        </mxCell>
        <mxCell id="B0HwnlrY3ajrPPypWIH2-15" value="1" style="text;html=1;align=center;verticalAlign=middle;whiteSpace=wrap;rounded=0;" parent="1" vertex="1">
          <mxGeometry x="600" y="343.13" width="20" height="16.87" as="geometry" />
        </mxCell>
        <mxCell id="B0HwnlrY3ajrPPypWIH2-20" value="TopLevelCondition" style="rounded=0;whiteSpace=wrap;html=1;" parent="1" vertex="1">
          <mxGeometry x="960" y="315" width="120" height="40" as="geometry" />
        </mxCell>
        <mxCell id="B0HwnlrY3ajrPPypWIH2-21" value="1" style="text;html=1;align=center;verticalAlign=middle;whiteSpace=wrap;rounded=0;" parent="1" vertex="1">
          <mxGeometry x="850" y="315" width="20" height="20" as="geometry" />
        </mxCell>
        <mxCell id="B0HwnlrY3ajrPPypWIH2-22" value="1" style="text;html=1;align=center;verticalAlign=middle;whiteSpace=wrap;rounded=0;" parent="1" vertex="1">
          <mxGeometry x="940" y="315" width="20" height="20" as="geometry" />
        </mxCell>
        <mxCell id="B0HwnlrY3ajrPPypWIH2-47" style="edgeStyle=orthogonalEdgeStyle;rounded=0;orthogonalLoop=1;jettySize=auto;html=1;exitX=0.5;exitY=1;exitDx=0;exitDy=0;" parent="1" edge="1">
          <mxGeometry relative="1" as="geometry">
            <mxPoint x="1080" y="395" as="sourcePoint" />
            <mxPoint x="1080" y="395" as="targetPoint" />
          </mxGeometry>
        </mxCell>
        <mxCell id="B0HwnlrY3ajrPPypWIH2-58" value="Question" style="rounded=0;whiteSpace=wrap;html=1;" parent="1" vertex="1">
          <mxGeometry x="860" y="670" width="120" height="40" as="geometry" />
        </mxCell>
        <mxCell id="B0HwnlrY3ajrPPypWIH2-73" style="edgeStyle=orthogonalEdgeStyle;rounded=0;orthogonalLoop=1;jettySize=auto;html=1;exitX=0.5;exitY=0;exitDx=0;exitDy=0;entryX=0.5;entryY=1;entryDx=0;entryDy=0;endArrow=none;endFill=0;" parent="1" source="B0HwnlrY3ajrPPypWIH2-75" target="B0HwnlrY3ajrPPypWIH2-5" edge="1">
          <mxGeometry relative="1" as="geometry" />
        </mxCell>
        <mxCell id="B0HwnlrY3ajrPPypWIH2-74" style="edgeStyle=orthogonalEdgeStyle;rounded=0;orthogonalLoop=1;jettySize=auto;html=1;exitX=0.5;exitY=1;exitDx=0;exitDy=0;entryX=0.5;entryY=0;entryDx=0;entryDy=0;endArrow=none;endFill=0;shape=link;" parent="1" source="B0HwnlrY3ajrPPypWIH2-75" target="B0HwnlrY3ajrPPypWIH2-77" edge="1">
          <mxGeometry relative="1" as="geometry" />
        </mxCell>
        <mxCell id="B0HwnlrY3ajrPPypWIH2-75" value="has" style="rhombus;whiteSpace=wrap;html=1;" parent="1" vertex="1">
          <mxGeometry x="761.64" y="390" width="56.72" height="56.25" as="geometry" />
        </mxCell>
        <mxCell id="B0HwnlrY3ajrPPypWIH2-88" style="rounded=0;orthogonalLoop=1;jettySize=auto;html=1;exitX=0.75;exitY=1;exitDx=0;exitDy=0;entryX=0.5;entryY=0;entryDx=0;entryDy=0;endArrow=none;endFill=0;" parent="1" source="B0HwnlrY3ajrPPypWIH2-77" target="B0HwnlrY3ajrPPypWIH2-86" edge="1">
          <mxGeometry relative="1" as="geometry" />
        </mxCell>
        <mxCell id="B0HwnlrY3ajrPPypWIH2-99" style="rounded=0;orthogonalLoop=1;jettySize=auto;html=1;exitX=0.25;exitY=1;exitDx=0;exitDy=0;entryX=0.5;entryY=0;entryDx=0;entryDy=0;endArrow=none;endFill=0;" parent="1" source="B0HwnlrY3ajrPPypWIH2-77" target="B0HwnlrY3ajrPPypWIH2-98" edge="1">
          <mxGeometry relative="1" as="geometry" />
        </mxCell>
        <mxCell id="B0HwnlrY3ajrPPypWIH2-102" style="edgeStyle=orthogonalEdgeStyle;rounded=0;orthogonalLoop=1;jettySize=auto;html=1;exitX=0.5;exitY=1;exitDx=0;exitDy=0;entryX=0.5;entryY=0;entryDx=0;entryDy=0;endArrow=none;endFill=0;" parent="1" source="B0HwnlrY3ajrPPypWIH2-77" target="B0HwnlrY3ajrPPypWIH2-101" edge="1">
          <mxGeometry relative="1" as="geometry" />
        </mxCell>
        <mxCell id="B0HwnlrY3ajrPPypWIH2-77" value="Event" style="rounded=0;whiteSpace=wrap;html=1;" parent="1" vertex="1">
          <mxGeometry x="730" y="480" width="120" height="40" as="geometry" />
        </mxCell>
        <mxCell id="B0HwnlrY3ajrPPypWIH2-78" style="rounded=0;orthogonalLoop=1;jettySize=auto;html=1;exitX=0.5;exitY=1;exitDx=0;exitDy=0;entryX=0.25;entryY=0;entryDx=0;entryDy=0;endArrow=none;endFill=0;" parent="1" source="B0HwnlrY3ajrPPypWIH2-79" target="B0HwnlrY3ajrPPypWIH2-77" edge="1">
          <mxGeometry relative="1" as="geometry" />
        </mxCell>
        <mxCell id="B0HwnlrY3ajrPPypWIH2-79" value="&lt;u&gt;Id&lt;/u&gt;" style="ellipse;whiteSpace=wrap;html=1;" parent="1" vertex="1">
          <mxGeometry x="686.72" y="390" width="70" height="37.5" as="geometry" />
        </mxCell>
        <mxCell id="B0HwnlrY3ajrPPypWIH2-80" style="rounded=0;orthogonalLoop=1;jettySize=auto;html=1;exitX=1;exitY=1;exitDx=0;exitDy=0;entryX=0;entryY=0;entryDx=0;entryDy=0;endArrow=none;endFill=0;" parent="1" source="B0HwnlrY3ajrPPypWIH2-81" target="B0HwnlrY3ajrPPypWIH2-77" edge="1">
          <mxGeometry relative="1" as="geometry" />
        </mxCell>
        <mxCell id="B0HwnlrY3ajrPPypWIH2-81" value="EventType" style="ellipse;whiteSpace=wrap;html=1;" parent="1" vertex="1">
          <mxGeometry x="650" y="427.5" width="70" height="37.5" as="geometry" />
        </mxCell>
        <mxCell id="B0HwnlrY3ajrPPypWIH2-84" value="1" style="text;html=1;align=center;verticalAlign=middle;whiteSpace=wrap;rounded=0;" parent="1" vertex="1">
          <mxGeometry x="770" y="355" width="20" height="20" as="geometry" />
        </mxCell>
        <mxCell id="B0HwnlrY3ajrPPypWIH2-85" value="N" style="text;html=1;align=center;verticalAlign=middle;whiteSpace=wrap;rounded=0;" parent="1" vertex="1">
          <mxGeometry x="770" y="460" width="20" height="20" as="geometry" />
        </mxCell>
        <mxCell id="B0HwnlrY3ajrPPypWIH2-89" style="rounded=0;orthogonalLoop=1;jettySize=auto;html=1;exitX=0.5;exitY=1;exitDx=0;exitDy=0;entryX=0.5;entryY=0;entryDx=0;entryDy=0;endArrow=none;endFill=0;" parent="1" source="B0HwnlrY3ajrPPypWIH2-86" target="B0HwnlrY3ajrPPypWIH2-58" edge="1">
          <mxGeometry relative="1" as="geometry" />
        </mxCell>
        <mxCell id="B0HwnlrY3ajrPPypWIH2-86" value="refers" style="rhombus;whiteSpace=wrap;html=1;" parent="1" vertex="1">
          <mxGeometry x="831.64" y="560" width="56.72" height="56.25" as="geometry" />
        </mxCell>
        <mxCell id="B0HwnlrY3ajrPPypWIH2-92" style="edgeStyle=orthogonalEdgeStyle;rounded=0;orthogonalLoop=1;jettySize=auto;html=1;exitX=1;exitY=0.5;exitDx=0;exitDy=0;entryX=0;entryY=0.5;entryDx=0;entryDy=0;endArrow=none;endFill=0;" parent="1" source="B0HwnlrY3ajrPPypWIH2-90" target="B0HwnlrY3ajrPPypWIH2-20" edge="1">
          <mxGeometry relative="1" as="geometry" />
        </mxCell>
        <mxCell id="B0HwnlrY3ajrPPypWIH2-90" value="has" style="rhombus;whiteSpace=wrap;html=1;" parent="1" vertex="1">
          <mxGeometry x="876.53" y="306.88" width="56.72" height="56.25" as="geometry" />
        </mxCell>
        <mxCell id="B0HwnlrY3ajrPPypWIH2-93" value="has" style="rhombus;whiteSpace=wrap;html=1;" parent="1" vertex="1">
          <mxGeometry x="630" y="266.88" width="56.72" height="56.25" as="geometry" />
        </mxCell>
        <mxCell id="B0HwnlrY3ajrPPypWIH2-94" value="has" style="rhombus;whiteSpace=wrap;html=1;" parent="1" vertex="1">
          <mxGeometry x="630" y="335.63" width="56.72" height="56.25" as="geometry" />
        </mxCell>
        <mxCell id="B0HwnlrY3ajrPPypWIH2-96" value="N" style="text;html=1;align=center;verticalAlign=middle;whiteSpace=wrap;rounded=0;" parent="1" vertex="1">
          <mxGeometry x="807" y="520" width="20" height="20" as="geometry" />
        </mxCell>
        <mxCell id="B0HwnlrY3ajrPPypWIH2-97" value="1" style="text;html=1;align=center;verticalAlign=middle;whiteSpace=wrap;rounded=0;" parent="1" vertex="1">
          <mxGeometry x="888.36" y="650" width="20" height="20" as="geometry" />
        </mxCell>
        <mxCell id="B0HwnlrY3ajrPPypWIH2-100" style="edgeStyle=orthogonalEdgeStyle;rounded=0;orthogonalLoop=1;jettySize=auto;html=1;exitX=0;exitY=0.5;exitDx=0;exitDy=0;entryX=0;entryY=0.5;entryDx=0;entryDy=0;endArrow=none;endFill=0;" parent="1" source="B0HwnlrY3ajrPPypWIH2-98" target="B0HwnlrY3ajrPPypWIH2-10" edge="1">
          <mxGeometry relative="1" as="geometry" />
        </mxCell>
        <mxCell id="B0HwnlrY3ajrPPypWIH2-98" value="refers" style="rhombus;whiteSpace=wrap;html=1;" parent="1" vertex="1">
          <mxGeometry x="691.64" y="560" width="56.72" height="56.25" as="geometry" />
        </mxCell>
        <mxCell id="B0HwnlrY3ajrPPypWIH2-104" style="edgeStyle=orthogonalEdgeStyle;rounded=0;orthogonalLoop=1;jettySize=auto;html=1;exitX=0.5;exitY=1;exitDx=0;exitDy=0;entryX=0.5;entryY=0;entryDx=0;entryDy=0;endArrow=none;endFill=0;" parent="1" source="B0HwnlrY3ajrPPypWIH2-101" target="B0HwnlrY3ajrPPypWIH2-103" edge="1">
          <mxGeometry relative="1" as="geometry" />
        </mxCell>
        <mxCell id="B0HwnlrY3ajrPPypWIH2-101" value="refers" style="rhombus;whiteSpace=wrap;html=1;" parent="1" vertex="1">
          <mxGeometry x="761.64" y="560" width="56.72" height="56.25" as="geometry" />
        </mxCell>
        <mxCell id="B0HwnlrY3ajrPPypWIH2-103" value="QuestionGroup" style="rounded=0;whiteSpace=wrap;html=1;" parent="1" vertex="1">
          <mxGeometry x="730" y="670" width="120" height="40" as="geometry" />
        </mxCell>
        <mxCell id="B0HwnlrY3ajrPPypWIH2-105" value="1" style="text;html=1;align=center;verticalAlign=middle;whiteSpace=wrap;rounded=0;" parent="1" vertex="1">
          <mxGeometry x="728.36" y="520" width="20" height="20" as="geometry" />
        </mxCell>
        <mxCell id="B0HwnlrY3ajrPPypWIH2-106" value="1" style="text;html=1;align=center;verticalAlign=middle;whiteSpace=wrap;rounded=0;" parent="1" vertex="1">
          <mxGeometry x="770" y="650" width="20" height="20" as="geometry" />
        </mxCell>
        <mxCell id="B0HwnlrY3ajrPPypWIH2-107" value="1" style="text;html=1;align=center;verticalAlign=middle;whiteSpace=wrap;rounded=0;" parent="1" vertex="1">
          <mxGeometry x="770" y="520" width="20" height="20" as="geometry" />
        </mxCell>
        <mxCell id="B0HwnlrY3ajrPPypWIH2-108" value="1" style="text;html=1;align=center;verticalAlign=middle;whiteSpace=wrap;rounded=0;" parent="1" vertex="1">
          <mxGeometry x="460" y="274.25" width="20" height="20" as="geometry" />
        </mxCell>
        <mxCell id="gBUjVpgYvw5NzijuVzpN-1" value="" style="endArrow=none;html=1;rounded=0;curved=1;" edge="1" parent="1">
          <mxGeometry width="50" height="50" relative="1" as="geometry">
            <mxPoint x="710" y="540" as="sourcePoint" />
            <mxPoint x="870" y="540" as="targetPoint" />
            <Array as="points">
              <mxPoint x="790" y="560" />
            </Array>
          </mxGeometry>
        </mxCell>
      </root>
    </mxGraphModel>
  </diagram>
</mxfile>
